<?xml version="1.0" encoding="UTF-8" standalone="no"?>
<svg
   width="40"
   height="40"
   fill="currentColor"
   class="bi bi-bootstrap-fill"
   viewBox="0 0 16 16"
   version="1.1"
   id="svg2"
   sodipodi:docname="bootstrap.svg"
   inkscape:version="1.3 (0e150ed6c4, 2023-07-21)"
   xmlns:inkscape="http://www.inkscape.org/namespaces/inkscape"
   xmlns:sodipodi="http://sodipodi.sourceforge.net/DTD/sodipodi-0.dtd"
   xmlns="http://www.w3.org/2000/svg"
   xmlns:svg="http://www.w3.org/2000/svg">
  <defs
     id="defs2" />
  <sodipodi:namedview
     id="namedview2"
     pagecolor="#ffffff"
     bordercolor="#999999"
     borderopacity="1"
     inkscape:showpageshadow="0"
     inkscape:pageopacity="0"
     inkscape:pagecheckerboard="0"
     inkscape:deskcolor="#d1d1d1"
     inkscape:zoom="9.0708542"
     inkscape:cx="17.969642"
     inkscape:cy="35.553432"
     inkscape:window-width="1920"
     inkscape:window-height="1017"
     inkscape:window-x="-8"
     inkscape:window-y="-8"
     inkscape:window-maximized="1"
     inkscape:current-layer="svg2" />
  <path
     d="M 6.375,7.125 V 4.658 h 1.78 c 0.973,0 1.542,0.457 1.542,1.237 0,0.802 -0.604,1.23 -1.764,1.23 z m 0,3.762 h 1.898 c 1.184,0 1.81,-0.48 1.81,-1.377 0,-0.885 -0.65,-1.348 -1.886,-1.348 H 6.375 Z"
     id="path1"
     style="fill:#02598b;fill-opacity:1" />
  <path
     d="m 4.002,0 a 4,4 0 0 0 -4,4 v 8 a 4,4 0 0 0 4,4 h 8 a 4,4 0 0 0 4,-4 V 4 a 4,4 0 0 0 -4,-4 z m 1.06,12 V 3.545 h 3.399 c 1.587,0 2.543,0.809 2.543,2.11 0,0.884 -0.65,1.675 -1.483,1.816 v 0.1 c 1.143,0.117 1.904,0.931 1.904,2.033 0,1.488 -1.084,2.396 -2.888,2.396 z"
     id="path2"
     style="fill:#02598b;fill-opacity:1" />
</svg>
