<?xml version="1.0" encoding="UTF-8" standalone="no"?>
<svg
   viewBox="0 0 63.492063 63.492063"
   width="40"
   height="40"
   version="1.1"
   id="svg1"
   sodipodi:docname="icons8-webpack.svg"
   inkscape:version="1.3 (0e150ed6c4, 2023-07-21)"
   xmlns:inkscape="http://www.inkscape.org/namespaces/inkscape"
   xmlns:sodipodi="http://sodipodi.sourceforge.net/DTD/sodipodi-0.dtd"
   xmlns="http://www.w3.org/2000/svg"
   xmlns:svg="http://www.w3.org/2000/svg">
  <defs
     id="defs1" />
  <sodipodi:namedview
     id="namedview1"
     pagecolor="#ffffff"
     bordercolor="#999999"
     borderopacity="1"
     inkscape:showpageshadow="0"
     inkscape:pageopacity="0"
     inkscape:pagecheckerboard="0"
     inkscape:deskcolor="#d1d1d1"
     inkscape:zoom="6"
     inkscape:cx="11.666667"
     inkscape:cy="19.583333"
     inkscape:window-width="1920"
     inkscape:window-height="1017"
     inkscape:window-x="-8"
     inkscape:window-y="-8"
     inkscape:window-maximized="1"
     inkscape:current-layer="svg1" />
  <path
     d="m 31.290598,0.41466276 c -0.01076,3.6701e-4 -0.02125,0.003304 -0.032,0.004012 -0.02654,0.001724 -0.05149,0.0101884 -0.078,0.0140278 -0.100531,0.0144895 -0.196609,0.043844 -0.290014,0.0881743 -0.01612,0.007613 -0.03412,0.005499 -0.05001,0.0140278 L 4.215275,14.899208 c -0.085258,0.04628 -0.1606206,0.104303 -0.2280111,0.170335 -0.014028,0.0137 -0.022774,0.03161 -0.036001,0.04609 -0.066908,0.07351 -0.1209315,0.155371 -0.164008,0.244482 -0.014582,0.03 -0.028341,0.05862 -0.040002,0.09018 -0.041172,0.111282 -0.06967,0.226383 -0.070003,0.34869 v 0.0021 0.002 30.78066 c 0,0.09055 0.013281,0.181253 0.036002,0.266525 0.030702,0.114046 0.085192,0.218222 0.1520075,0.31462 0.015625,0.02267 0.032473,0.04266 0.050002,0.06413 0.074627,0.09126 0.1595317,0.174483 0.2640129,0.236466 0.00183,0.0011 0.00416,9.2e-4 0.006,0.0021 0.0017,9.94e-4 0.00229,0.003 0.004,0.004 L 30.802578,62.855758 c 0.0013,7.6e-4 0.0027,0.0012 0.004,0.0021 0.0013,7.66e-4 0.0027,0.0012 0.004,0.0021 l 0.004,0.0021 c 0.0463,0.02672 0.09577,0.04135 0.144007,0.06012 0.03408,0.01325 0.06696,0.03263 0.102006,0.04209 h 0.002 C 31.149837,62.98739 31.236651,63 31.3246,63 h 0.002 c 0.08696,0 0.175074,-0.01179 0.260012,-0.03406 0.01737,-0.0046 0.03289,-0.01455 0.05,-0.02004 0.06371,-0.02042 0.12799,-0.04292 0.18801,-0.07615 L 59.473973,47.47942 c 0.0043,-0.0024 0.0057,-0.0076 0.01004,-0.01006 0.0095,-0.0054 0.02063,-0.0063 0.03001,-0.01202 0.09409,-0.05868 0.172791,-0.135606 0.242012,-0.21843 0.01793,-0.02147 0.03199,-0.04341 0.048,-0.06613 0.06094,-0.08596 0.109795,-0.177809 0.142007,-0.278549 0.0042,-0.01313 0.01034,-0.02478 0.014,-0.03808 C 59.984274,46.768322 60,46.677295 60,46.583649 v -30.78066 c 0,-0.0071 -0.0039,-0.01295 -0.004,-0.02004 -0.0028,-0.113233 -0.02864,-0.221287 -0.066,-0.324641 -0.01314,-0.03641 -0.02699,-0.06985 -0.044,-0.104205 -0.0414,-0.08426 -0.09323,-0.160406 -0.156008,-0.230454 -0.01545,-0.01722 -0.02544,-0.03798 -0.04201,-0.0541 -0.07074,-0.06895 -0.149689,-0.129472 -0.240011,-0.176347 L 31.798627,0.52889399 c -0.04225,-0.0219856 -0.08783,-0.0324192 -0.132007,-0.0480948 -0.02514,-0.008978 -0.04825,-0.0190584 -0.07401,-0.0260517 -0.09883,-0.0267412 -0.200744,-0.043531 -0.302015,-0.0400795 z M 32.35065,3.126006 56.71984,15.784953 46.703351,20.804846 32.35065,13.135733 Z m -2.0481,0.032063 v 9.977664 L 15.971849,20.792822 6.8514038,15.809 Z M 31.3266,14.91524 44.511244,21.959121 31.3266,29.003002 18.141955,21.959121 Z m 26.6253,2.549023 V 44.924378 L 47.7114,39.794268 V 22.592369 Z m -52.2265512,0.06814 9.2164502,5.035924 c -0.630706,-0.344621 1.368629,0.976797 2.0481,1.102169 L 30.30255,30.782509 V 46.92432 l -13.312651,-7.112015 -2.0481,0.0061 -9.2164502,5.035924 z M 45.6633,23.670498 v 16.757019 c 0,0.05126 0.02078,0.09506 0.028,0.144284 0.01075,0.07384 0.01774,0.146819 0.044,0.216426 0.02343,0.06189 0.06164,0.112852 0.096,0.168332 0.03453,0.05644 0.06458,0.113019 0.110005,0.16232 0.04957,0.05369 0.110071,0.09217 0.170009,0.134265 0.04137,0.02914 0.07141,0.06884 0.118005,0.09218 L 56.781843,46.631743 32.35065,60.230542 V 48.635693 30.782509 Z m -2.962145,16.652814 c -44.1441564,-41.9626972 -44.1441564,-41.9626972 0,0 z m -26.731306,1.270503 14.332701,7.65709 V 60.198479 L 6.7914008,46.607696 Z m 23.521149,4.869596 c -40.9339994,-48.1027962 -40.9339994,-48.1027962 0,0 z"
     id="path1"
     sodipodi:nodetypes="cccccccccccccscccssccscccccsscsccccscscsscccccccccsccccccccccccccccccccccscccccccscccccccccccsccscccscc"
     style="stroke-width:1.02504" />
  <path
     style="fill:none;stroke:#000000;stroke-width:1.99202;stroke-linecap:round;stroke-linejoin:round;stroke-dasharray:none;stroke-opacity:1"
     d="m 15.701662,21.931074 0.241303,17.769642"
     id="path2" />
  <path
     style="fill:none;stroke:#000000;stroke-width:1.99202;stroke-linecap:round;stroke-linejoin:round;stroke-dasharray:none;stroke-opacity:1"
     d="M 46.796585,40.562173 31.097186,48.832442"
     id="path2-8" />
</svg>
